<?xml version="1.0" encoding="UTF-8"?>
<!-- Generated by Pixelmator Pro 3.7.1 -->
<svg width="20833" height="20833" viewBox="0 0 20833 20833" xmlns="http://www.w3.org/2000/svg">
    <g id="svg8">
        <path id="Path" fill="#ffffff" stroke="none" d="M 20654.964844 20654.630859 L 178.368744 20654.630859 L 178.368744 178.035156 L 20654.964844 178.035156 L 20654.964844 20654.630859 Z"/>
        <g id="Group">
            <g id="g1">
                <g id="g2">
                    <g id="g3">
                        <g id="g4"/>
                    </g>
                </g>
                <g id="g5">
                    <g id="g6"/>
                </g>
                <path id="path1" fill="#ff0000" stroke="none" d="M 11419.775391 10662.446289 L 11419.775391 10662.446289 L 11419.775391 10662.446289 L 11419.775391 10662.446289 L 11419.775391 10662.446289 Z"/>
                <g id="g7">
                    <g id="g8">
                        <g id="g9">
                            <g id="g10"/>
                        </g>
                    </g>
                </g>
                <g id="g11"/>
                <g id="g12"/>
                <g id="g13">
                    <g id="g14"/>
                </g>
                <g id="g15"/>
                <g id="g16"/>
                <g id="g17"/>
                <g id="g18">
                    <g id="g19">
                        <g id="g20"/>
                    </g>
                </g>
                <g id="g21">
                    <path id="path2" fill="#000000" stroke="none" d="M 10416.650391 2219.929688 C 9417.765625 2219.931641 8601.783203 3035.912109 8601.782227 4034.798828 C 8601.783203 4721.668945 8989.176758 5318.477539 9555.143555 5626.481445 C 9528.211914 5631.680664 9500.311523 5633.453125 9473.608398 5639.274414 C 9473.470703 5639.292969 9473.331055 5639.301758 9473.193359 5639.331055 C 9473.25 5639.320313 9473.061523 5639.353516 9472.648438 5639.469727 C 9472.579102 5639.489258 9472.505859 5639.49707 9472.436523 5639.526367 C 8569.692383 5839.932617 7839.088867 6377.847656 7465.494629 7000.146484 C 7465.425781 7000.353516 7465.286621 7000.485352 7465.218262 7000.692383 C 7464.736328 7001.524414 7464.525879 7001.782227 7464.257813 7002.270508 C 7464.199707 7002.338867 7464.20752 7002.405273 7464.127441 7002.474609 C 7259.04541 7350.234375 7220.889648 7729.322266 7192.146973 8084.855469 L 6849.291992 12169.637695 L 6849.080566 12172.167969 L 6849.023438 12172.518555 L 6848.885254 12173.983398 C 6848.609863 12178.31543 6848.609863 12182.661133 6848.885254 12186.996094 C 6829.727539 12417.529297 6876.630859 12641.035156 6989.745605 12825.211914 C 7107.21875 13016.486328 7307.005859 13168.400391 7552.970215 13192.75 C 7798.573242 13217.061523 8023.716309 13108.814453 8179.02002 12947.314453 C 8332.668945 12787.536133 8430.401367 12573.499023 8460.124023 12337.100586 L 8540.8125 11695.385742 L 8575.578125 12329.044922 C 8575.635742 12329.987305 8575.711914 12330.918945 8575.78125 12331.860352 L 8575.837891 12332.821289 C 8587.59082 12515.650391 8591.163086 12683.017578 8591.894531 12870.572266 L 8591.894531 17621.509766 C 8591.894531 18146.324219 8980.907227 18612.728516 9501.977539 18612.728516 C 10016.612305 18612.728516 10384.748047 18156.441406 10409.635742 17651.089844 L 10416.682617 17522.460938 L 10422.126953 17650.871094 C 10446.791992 18156.423828 10816.514648 18612.736328 11331.323242 18612.736328 C 11852.392578 18612.736328 12241.40625 18146.333984 12241.40625 17621.517578 L 12241.40625 12871.419922 L 12241.40625 12870.939453 L 12241.40625 12870.524414 C 12242.148438 12682.724609 12245.724609 12515.181641 12257.519531 12332.040039 C 12257.577148 12331.310547 12257.588867 12330.578125 12257.658203 12329.842773 C 12257.628906 12330.688477 12257.714844 12329.066406 12257.714844 12329.052734 L 12257.771484 12327.816406 L 12292.480469 11695.458984 L 12373.168945 12337.060547 C 12402.890625 12573.458984 12500.624023 12787.495117 12654.272461 12947.273438 C 12809.567383 13108.763672 13034.702148 13217.080078 13280.322266 13192.765625 C 13526.306641 13168.414063 13726.078125 13016.4375 13843.546875 12825.171875 C 13930.52832 12683.541992 13979.075195 12518.578125 13988.126953 12345.279297 C 13988.333008 12341.916992 13988.333008 12338.556641 13988.126953 12335.197266 L 13988.15918 12335.229492 C 13988.021484 12333.97168 13987.950195 12332.711914 13987.744141 12331.454102 C 13989.649414 12284.005859 13988.362305 12235.916016 13984.367188 12187.492188 C 13984.642578 12182.988281 13984.642578 12178.46875 13984.367188 12173.966797 L 13984.228516 12172.501953 L 13984.171875 12171.655273 L 13983.967773 12169.572266 L 13641.056641 8084.179688 C 13612.314453 7728.825195 13574.091797 7349.942383 13369.075195 7002.360352 C 13369.092773 7002.388672 13369.060547 7002.291992 13369.075195 7002.303711 C 13369.0625 7002.28125 13369.018555 7002.276367 13369.018555 7002.246094 C 13369.224609 7002.589844 13369.226563 7002.583008 13368.538086 7001.449219 C 13368.263672 7000.967773 13367.991211 7000.551758 13367.756836 7000.097656 C 12994.165039 6377.803711 12263.554688 5839.882813 11360.807617 5639.477539 C 11360.256836 5639.34082 11359.907227 5639.274414 11359.790039 5639.274414 L 11359.586914 5639.274414 C 11332.636719 5633.400391 11304.654297 5631.731445 11277.490234 5626.538086 C 11843.724609 5318.645508 12231.460938 4721.867188 12231.461914 4034.798828 C 12231.460938 3035.917969 11415.535156 2219.931641 10416.650391 2219.929688 Z M 10416.723633 2537.255859 C 11243.777344 2537.253906 11914.237305 3207.710938 11914.241211 4034.765625 C 11914.242188 4861.820313 11243.782227 5532.283203 10416.726563 5532.28418 C 10416.725586 5532.28418 10416.724609 5532.28418 10416.723633 5532.28418 C 9589.669922 5532.279297 8919.212891 4861.818359 8919.213867 4034.765625 C 8919.217773 3207.714844 9589.672852 2537.259766 10416.723633 2537.255859 Z M 10371.362305 5864.364258 C 10385.662109 5864.364258 10400.356445 5864.429688 10416.658203 5864.567383 C 10710.023438 5863.591797 11013.388672 5888.522461 11292.106445 5949.276367 C 12110.716797 6131.00293 12776.525391 6631.704102 13095.759766 7163.452148 C 13257.092773 7436.921875 13296.688477 7762.170898 13324.861328 8110.685547 L 13668.171875 12200.472656 C 13702.167969 12548.361328 13520.541992 12850.076172 13249.040039 12876.953125 C 12977.541992 12903.830078 12731.614258 12644.189453 12688.020508 12297.469727 L 12244.726563 8772.355469 L 12243.318359 8759.554688 C 12241.046875 8730.251953 12221.088867 8706.491211 12189.729492 8705.941406 C 12170.811523 8705.941406 12153.070313 8716.375 12143.896484 8731.095703 C 12141.166016 8735.194336 12139.446289 8739.90918 12138.208008 8744.750977 C 12136.619141 8751.75 12135.561523 8761.845703 12135.148438 8771.208008 L 11940.901367 12311.645508 C 11928.545898 12503.536133 11924.87207 12678.896484 11924.128906 12870.524414 L 11924.128906 17621.476563 C 11924.128906 17994.789063 11659.793945 18295.353516 11331.379883 18295.353516 C 11002.966797 18295.353516 10750.211914 17994.554688 10738.582031 17621.476563 L 10521.191406 12563.354492 C 10521.191406 12563.079102 10521.167969 12562.946289 10521.15918 12562.670898 L 10521.15918 12563.354492 C 10520.268555 12541.806641 10519.572266 12524.538086 10514.021484 12507.243164 C 10510.694336 12496.865234 10505.632813 12486.476563 10497.729492 12475.163086 C 10486.102539 12459.728516 10470.288086 12447.631836 10451.994141 12440.527344 C 10451.994141 12440.522461 10451.974609 12440.53125 10451.960938 12440.527344 C 10444.649414 12437.6875 10436.939453 12435.644531 10428.947266 12434.489258 C 10428.947266 12434.487305 10428.927734 12434.491211 10428.914063 12434.489258 C 10424.911133 12433.890625 10420.847656 12433.547852 10416.707031 12433.480469 C 10412.574219 12433.583008 10408.495117 12433.938477 10404.492188 12434.489258 C 10400.504883 12435.05957 10396.538086 12435.870117 10392.700195 12436.874023 C 10381.164063 12439.905273 10370.379883 12444.834961 10360.758789 12451.334961 C 10351.141602 12457.829102 10342.666016 12465.90625 10335.693359 12475.163086 C 10330.424805 12482.706055 10326.390625 12489.829102 10323.323242 12496.818359 C 10320.249023 12503.807617 10318.113281 12510.686523 10316.59375 12517.667969 C 10315.073242 12524.651367 10314.229492 12531.757813 10313.541992 12539.282227 C 10312.950195 12546.810547 10312.607422 12554.734375 10312.263672 12563.354492 L 10312.263672 12562.670898 C 10312.263672 12562.946289 10312.241211 12563.079102 10312.231445 12563.354492 L 10094.848633 17621.476563 C 10083.219727 17994.554688 9830.463867 18295.353516 9502.050781 18295.353516 C 9173.635742 18295.353516 8909.293945 17994.787109 8909.293945 17621.476563 L 8909.293945 12870.515625 C 8908.560547 12678.890625 8904.891602 12503.510742 8892.537109 12311.621094 L 8698.291016 8771.183594 C 8697.87793 8761.820313 8696.803711 8751.724609 8695.214844 8744.726563 C 8693.976563 8739.886719 8692.240234 8735.169922 8689.509766 8731.071289 C 8680.335938 8716.350586 8662.613281 8705.932617 8643.693359 8705.932617 C 8612.335938 8706.508789 8592.350586 8730.226563 8590.087891 8759.530273 L 8588.639648 8772.338867 L 8145.385742 12297.460938 C 8101.792969 12644.181641 7855.866699 12903.822266 7584.366699 12876.945313 C 7312.864746 12850.067383 7131.238281 12548.353516 7165.234375 12200.463867 L 7508.520508 8110.661133 C 7536.692383 7762.146484 7576.321777 7436.911133 7737.654785 7163.444336 C 8056.888184 6631.693359 8722.707031 6130.996094 9541.316406 5949.267578 C 9792.094727 5894.606445 10062.961914 5868.569336 10328.442383 5864.608398 L 10328.385742 5864.591797 C 10343.155273 5864.443359 10357.0625 5864.381836 10371.362305 5864.388672 L 10371.362305 5864.364258 Z"/>
                </g>
                <g id="g22">
                    <g id="g23">
                        <g id="g24"/>
                    </g>
                </g>
                <g id="g25">
                    <g id="g26"/>
                </g>
                <g id="g27"/>
                <g id="g28">
                    <g id="g29">
                        <g id="g30">
                            <g id="g31"/>
                        </g>
                    </g>
                </g>
                <g id="g32"/>
                <g id="g33"/>
            </g>
        </g>
    </g>
</svg>
